<svg width="920" height="390" viewBox="0 0 920 390" xmlns="http://www.w3.org/2000/svg" role="img" aria-label="MailStudio focus timer preview states">
  <defs>
    <filter id="shadow" x="-12%" y="-30%" width="124%" height="170%">
      <feDropShadow dx="0" dy="12" stdDeviation="16" flood-color="#000" flood-opacity="0.2"/>
    </filter>
    <filter id="greenGlow" x="-45%" y="-45%" width="190%" height="190%">
      <feDropShadow dx="0" dy="7" stdDeviation="7" flood-color="#34c759" flood-opacity="0.28"/>
    </filter>
    <filter id="yellowGlow" x="-45%" y="-45%" width="190%" height="190%">
      <feDropShadow dx="0" dy="7" stdDeviation="7" flood-color="#ffc300" flood-opacity="0.32"/>
    </filter>
    <filter id="pinkGlow" x="-45%" y="-45%" width="190%" height="190%">
      <feDropShadow dx="0" dy="7" stdDeviation="7" flood-color="#ff6cad" flood-opacity="0.34"/>
    </filter>
    <linearGradient id="idleCard" x1="0" x2="1" y1="0" y2="1">
      <stop offset="0" stop-color="#171d25"/>
      <stop offset="1" stop-color="#11161d"/>
    </linearGradient>
    <linearGradient id="runningCard" x1="0" x2="1" y1="0" y2="1">
      <stop offset="0" stop-color="#20392b"/>
      <stop offset="0.54" stop-color="#171d25"/>
      <stop offset="1" stop-color="#11161d"/>
    </linearGradient>
    <linearGradient id="warningCard" x1="0" x2="1" y1="0" y2="1">
      <stop offset="0" stop-color="#3b3218"/>
      <stop offset="0.54" stop-color="#171d25"/>
      <stop offset="1" stop-color="#11161d"/>
    </linearGradient>
    <conicGradient id="urgentCard" gradientTransform="rotate(215 .18 .5)">
      <stop offset="0" stop-color="#542323"/>
      <stop offset=".18" stop-color="#544318"/>
      <stop offset=".38" stop-color="#203b2b"/>
      <stop offset=".58" stop-color="#173547"/>
      <stop offset=".78" stop-color="#3d254b"/>
      <stop offset="1" stop-color="#542323"/>
    </conicGradient>
  </defs>

  <rect width="920" height="390" rx="20" fill="#0d1117"/>
  <text x="40" y="52" fill="#f5f7fa" font-family="-apple-system, BlinkMacSystemFont, 'Segoe UI', sans-serif" font-size="24" font-weight="750">Focus timer states</text>
  <text x="40" y="78" fill="#8b96a6" font-family="-apple-system, BlinkMacSystemFont, 'Segoe UI', sans-serif" font-size="14" font-weight="520">Neutral idle, green running, yellow at 20%, animated rainbow for the last 10%.</text>

  <g transform="translate(40 120)" filter="url(#shadow)">
    <rect width="390" height="92" rx="8" fill="url(#idleCard)" stroke="#303844"/>
    <g transform="translate(46 46)">
      <circle r="29" fill="none" stroke="#2a313b" stroke-width="4"/>
      <circle r="29" fill="none" stroke="#34c759" stroke-width="4.4" stroke-linecap="round" stroke-dasharray="182" stroke-dashoffset="182" transform="rotate(-90)"/>
      <text y="5" text-anchor="middle" fill="#f5f7fa" font-family="-apple-system, BlinkMacSystemFont, 'Segoe UI', sans-serif" font-size="15" font-weight="760">30:00</text>
    </g>
    <g transform="translate(92 24)">
      <rect width="48" height="22" rx="6" fill="#151b22" stroke="#31523d"/>
      <text x="24" y="15" text-anchor="middle" fill="#f5f7fa" font-family="-apple-system, BlinkMacSystemFont, 'Segoe UI', sans-serif" font-size="10.5" font-weight="720">15m</text>
      <rect x="54" width="48" height="22" rx="6" fill="#1a3022" stroke="#3c6c4b"/>
      <text x="78" y="15" text-anchor="middle" fill="#f5f7fa" font-family="-apple-system, BlinkMacSystemFont, 'Segoe UI', sans-serif" font-size="10.5" font-weight="720">30m</text>
      <rect x="108" width="48" height="22" rx="6" fill="#151b22"/>
      <text x="132" y="15" text-anchor="middle" fill="#9aa5b5" font-family="-apple-system, BlinkMacSystemFont, 'Segoe UI', sans-serif" font-size="10.5" font-weight="720">1hr</text>
    </g>
    <g transform="translate(92 52)">
      <rect width="188" height="30" rx="8" fill="#111820" stroke="#2b333d"/>
      <text x="20" y="21" text-anchor="middle" fill="#b8c2d0" font-family="-apple-system, BlinkMacSystemFont, 'Segoe UI', sans-serif" font-size="16" font-weight="650">−</text>
      <rect x="38" y="4" width="96" height="22" rx="6" fill="#182029"/>
      <text x="86" y="20" text-anchor="middle" fill="#f5f7fa" font-family="-apple-system, BlinkMacSystemFont, 'Segoe UI', sans-serif" font-size="12" font-weight="760">30</text>
      <text x="145" y="20" fill="#7f8a99" font-family="-apple-system, BlinkMacSystemFont, 'Segoe UI', sans-serif" font-size="10" font-weight="650">min</text>
      <text x="174" y="21" text-anchor="middle" fill="#b8c2d0" font-family="-apple-system, BlinkMacSystemFont, 'Segoe UI', sans-serif" font-size="15" font-weight="650">+</text>
    </g>
    <g transform="translate(342 12)">
      <rect width="28" height="34" rx="8" fill="#121820"/>
      <path d="M11 9v16l10-8z" fill="#9aa5b5"/>
      <rect y="41" width="28" height="34" rx="8" fill="#121820"/>
      <path d="M22 17a9 9 0 1 0-.7 4.5M22 9v8h-8" fill="none" stroke="#9aa5b5" stroke-width="2" stroke-linecap="round" stroke-linejoin="round"/>
    </g>
  </g>

  <g transform="translate(490 120)" filter="url(#shadow)">
    <rect width="390" height="92" rx="8" fill="url(#runningCard)" stroke="#31523d"/>
    <g transform="translate(46 46)">
      <circle r="29" fill="none" stroke="#2a313b" stroke-width="4"/>
      <circle r="29" fill="none" stroke="#34c759" stroke-width="4.4" stroke-linecap="round" stroke-dasharray="182" stroke-dashoffset="28" transform="rotate(-90)" filter="url(#greenGlow)"/>
      <text y="5" text-anchor="middle" fill="#f5f7fa" font-family="-apple-system, BlinkMacSystemFont, 'Segoe UI', sans-serif" font-size="15" font-weight="760">25:11</text>
    </g>
    <g transform="translate(92 24)" opacity=".58">
      <rect width="48" height="22" rx="6" fill="#151b22"/><text x="24" y="15" text-anchor="middle" fill="#9aa5b5" font-family="-apple-system, BlinkMacSystemFont, 'Segoe UI', sans-serif" font-size="10.5" font-weight="720">15m</text>
      <rect x="54" width="48" height="22" rx="6" fill="#1a3022" stroke="#3c6c4b"/><text x="78" y="15" text-anchor="middle" fill="#f5f7fa" font-family="-apple-system, BlinkMacSystemFont, 'Segoe UI', sans-serif" font-size="10.5" font-weight="720">30m</text>
      <rect x="108" width="48" height="22" rx="6" fill="#151b22"/><text x="132" y="15" text-anchor="middle" fill="#9aa5b5" font-family="-apple-system, BlinkMacSystemFont, 'Segoe UI', sans-serif" font-size="10.5" font-weight="720">1hr</text>
    </g>
    <g transform="translate(92 52)" opacity=".58">
      <rect width="188" height="30" rx="8" fill="#111820" stroke="#2b333d"/>
      <text x="86" y="20" text-anchor="middle" fill="#f5f7fa" font-family="-apple-system, BlinkMacSystemFont, 'Segoe UI', sans-serif" font-size="12" font-weight="760">30</text>
      <text x="145" y="20" fill="#7f8a99" font-family="-apple-system, BlinkMacSystemFont, 'Segoe UI', sans-serif" font-size="10" font-weight="650">min</text>
    </g>
    <g transform="translate(342 12)">
      <rect width="28" height="34" rx="8" fill="#34c759"/>
      <path d="M10 9h4v16h-4zM16 9h4v16h-4z" fill="#07240e"/>
      <rect y="41" width="28" height="34" rx="8" fill="#121820"/>
      <path d="M22 17a9 9 0 1 0-.7 4.5M22 9v8h-8" fill="none" stroke="#9aa5b5" stroke-width="2" stroke-linecap="round" stroke-linejoin="round"/>
    </g>
  </g>

  <g transform="translate(40 245)" filter="url(#shadow)">
    <rect width="390" height="92" rx="8" fill="url(#warningCard)" stroke="#6f5b1d"/>
    <g transform="translate(46 46)">
      <circle r="29" fill="none" stroke="#2a313b" stroke-width="4"/>
      <circle r="29" fill="none" stroke="#ffc300" stroke-width="4.4" stroke-linecap="round" stroke-dasharray="182" stroke-dashoffset="146" transform="rotate(-90)" filter="url(#yellowGlow)"/>
      <text y="5" text-anchor="middle" fill="#f5f7fa" font-family="-apple-system, BlinkMacSystemFont, 'Segoe UI', sans-serif" font-size="15" font-weight="760">5:54</text>
    </g>
    <g transform="translate(92 24)" opacity=".58">
      <rect width="48" height="22" rx="6" fill="#151b22"/><text x="24" y="15" text-anchor="middle" fill="#9aa5b5" font-family="-apple-system, BlinkMacSystemFont, 'Segoe UI', sans-serif" font-size="10.5" font-weight="720">15m</text>
      <rect x="54" width="48" height="22" rx="6" fill="#352b14" stroke="#80691e"/><text x="78" y="15" text-anchor="middle" fill="#f5f7fa" font-family="-apple-system, BlinkMacSystemFont, 'Segoe UI', sans-serif" font-size="10.5" font-weight="720">30m</text>
      <rect x="108" width="48" height="22" rx="6" fill="#151b22"/><text x="132" y="15" text-anchor="middle" fill="#9aa5b5" font-family="-apple-system, BlinkMacSystemFont, 'Segoe UI', sans-serif" font-size="10.5" font-weight="720">1hr</text>
    </g>
    <g transform="translate(92 52)" opacity=".58">
      <rect width="188" height="30" rx="8" fill="#111820" stroke="#2b333d"/>
      <text x="86" y="20" text-anchor="middle" fill="#f5f7fa" font-family="-apple-system, BlinkMacSystemFont, 'Segoe UI', sans-serif" font-size="12" font-weight="760">30</text>
      <text x="145" y="20" fill="#7f8a99" font-family="-apple-system, BlinkMacSystemFont, 'Segoe UI', sans-serif" font-size="10" font-weight="650">min</text>
    </g>
    <g transform="translate(342 12)">
      <rect width="28" height="34" rx="8" fill="#ffc300"/>
      <path d="M10 9h4v16h-4zM16 9h4v16h-4z" fill="#3a2700"/>
      <rect y="41" width="28" height="34" rx="8" fill="#121820"/>
      <path d="M22 17a9 9 0 1 0-.7 4.5M22 9v8h-8" fill="none" stroke="#9aa5b5" stroke-width="2" stroke-linecap="round" stroke-linejoin="round"/>
    </g>
  </g>

  <g transform="translate(490 245)" filter="url(#shadow)">
    <rect width="390" height="92" rx="8" fill="url(#urgentCard)" stroke="#7c3b68"/>
    <g transform="translate(46 46)">
      <circle r="29" fill="none" stroke="#2a313b" stroke-width="4"/>
      <circle r="29" fill="none" stroke="#ff6cad" stroke-width="4.4" stroke-linecap="round" stroke-dasharray="182" stroke-dashoffset="176" transform="rotate(-90)" filter="url(#pinkGlow)"/>
      <text y="5" text-anchor="middle" fill="#f5f7fa" font-family="-apple-system, BlinkMacSystemFont, 'Segoe UI', sans-serif" font-size="15" font-weight="760">2:47</text>
    </g>
    <g transform="translate(92 24)" opacity=".58">
      <rect width="48" height="22" rx="6" fill="#151b22"/><text x="24" y="15" text-anchor="middle" fill="#9aa5b5" font-family="-apple-system, BlinkMacSystemFont, 'Segoe UI', sans-serif" font-size="10.5" font-weight="720">15m</text>
      <rect x="54" width="48" height="22" rx="6" fill="#301b2d" stroke="#7c3b68"/><text x="78" y="15" text-anchor="middle" fill="#f5f7fa" font-family="-apple-system, BlinkMacSystemFont, 'Segoe UI', sans-serif" font-size="10.5" font-weight="720">30m</text>
      <rect x="108" width="48" height="22" rx="6" fill="#151b22"/><text x="132" y="15" text-anchor="middle" fill="#9aa5b5" font-family="-apple-system, BlinkMacSystemFont, 'Segoe UI', sans-serif" font-size="10.5" font-weight="720">1hr</text>
    </g>
    <g transform="translate(92 52)" opacity=".58">
      <rect width="188" height="30" rx="8" fill="#111820" stroke="#2b333d"/>
      <text x="86" y="20" text-anchor="middle" fill="#f5f7fa" font-family="-apple-system, BlinkMacSystemFont, 'Segoe UI', sans-serif" font-size="12" font-weight="760">30</text>
      <text x="145" y="20" fill="#7f8a99" font-family="-apple-system, BlinkMacSystemFont, 'Segoe UI', sans-serif" font-size="10" font-weight="650">min</text>
    </g>
    <g transform="translate(342 12)">
      <rect width="28" height="34" rx="8" fill="#ff6cad"/>
      <path d="M10 9h4v16h-4zM16 9h4v16h-4z" fill="#3a0527"/>
      <rect y="41" width="28" height="34" rx="8" fill="#121820"/>
      <path d="M22 17a9 9 0 1 0-.7 4.5M22 9v8h-8" fill="none" stroke="#9aa5b5" stroke-width="2" stroke-linecap="round" stroke-linejoin="round"/>
    </g>
  </g>
</svg>
